<?xml version="1.0" standalone="no" ?> 
<!DOCTYPE svg PUBLIC "-//W3C//DTD SVG 1.1//EN" "http://www.w3.org/Graphics/SVG/1.1/DTD/svg11.dtd"> 
<svg width="100%" height="100%" version="1.1" xmlns="http://www.w3.org/2000/svg" xmlns:xlink="http://www.w3.org/1999/xlink" shape-rendering="geometricPrecision"><defs><style> /*<![CDATA[*/ .m0{fill:#000;} .m1{fill:#fff;} .c1{fill:#cddbff;} .c2{fill:#6aa2ff;} .c3{fill:#e0e0e0;} .c4{fill:#085fff;} .bg{x:4.5px;width:calc(100% - 13.5px);height:calc(100% - 4px);} .st{height:calc(100% - 4px);width:8px;y:2px;} .cw{x:3px;width:calc(100% - 11.5px);} .mh{y:3px;height:calc(100% - 6px);} .sl{height:calc(100% - 8px);width:8px;y:4px;} /*]]>*/ </style><linearGradient id="gr" x1="0" x2="0" y1="0" y2="1"><stop offset="0%" stop-color="#f5f7ff" /><stop offset="100%" stop-color="#cad1ec" /></linearGradient><rect id="mc" class="m1" width="4" height="4" x="0" y="0" /><polygon id="c-mtlr-1" points="0,0 15,0 65,50 50,50"/><polygon id="c-mtlr-2" points="15,0 30,0 80,50 65,50"/><polygon id="c-mtlr-3" points="10,0 20,0 70,50 60,50"/><polygon id="c-mblr-1" points="50,50 65,50 15,100 0,100"/><polygon id="c-mblr-2" points="65,50 80,50 30,100 15,100"/><polygon id="c-mblr-3" points="60,50 70,50 20,100 10,100"/><pattern id="c-cm-l" viewBox="0,0,80,100" width="100%" height="100%" preserveAspectRatio="none"><polygon fill="url(#gr)" points="20,0 80,0 80,100 20,100 70,50"/></pattern><pattern id="c-cm-r" viewBox="0,0,80,100" width="100%" height="100%" preserveAspectRatio="none"><polygon fill="url(#gr)" points="0,0 10,0 60,50 10,100 0,100"/></pattern><mask id="m-clt-1"><use href="#mc" /><circle class="m0" cx="4" cy="4" r="2.5" /></mask><mask id="m-clt-2"><use href="#mc" /><ellipse class="m0" cx="4" cy="4" rx="3" ry="4" /></mask><mask id="m-clt-3"><use href="#mc" /><circle class="m0" cx="4" cy="4" r="1.5" /></mask><mask id="m-clt-4"><use href="#mc" /><ellipse class="m0" cx="4" cy="4" rx="2" ry="3" /></mask><mask id="m-clt-5"><use href="#mc" /><circle class="m0" cx="4" cy="4" r="1" /></mask><mask id="m-clt-6"><use href="#mc" /><ellipse class="m0" cx="4" cy="4" rx="1" ry="2" /></mask><mask id="m-clb-1"><use href="#mc" /><circle class="m0" cx="4" cy="0" r="2.5" /></mask><mask id="m-clb-2"><use href="#mc" /><ellipse class="m0" cx="4" cy="0" rx="4" ry="3" /></mask><mask id="m-clb-3"><use href="#mc" /><circle class="m0" cx="4" cy="0" r="1.5" /></mask><mask id="m-clb-4"><use href="#mc" /><ellipse class="m0" cx="4" cy="0" rx="3" ry="2" /></mask><mask id="m-clb-5"><use href="#mc" /><circle class="m0" cx="4" cy="0" r="1" /></mask><mask id="m-clb-6"><use href="#mc" /><ellipse class="m0" cx="4" cy="0" rx="2" ry="1" /></mask><mask id="m-crt-1"><use href="#mc" /><circle class="m0" cx="0" cy="4" r="2.5" /></mask><mask id="m-crt-2"><use href="#mc" /><circle class="m0" cx="0" cy="4" r="1.5" /></mask><mask id="m-crt-3"><use href="#mc" /><circle class="m0" cx="0" cy="4" r="1" /></mask><mask id="m-crb-1"><use href="#mc" /><circle class="m0" cx="0" cy="0" r="2.5" /></mask><mask id="m-crb-2"><use href="#mc" /><circle class="m0" cx="0" cy="0" r="1.5" /></mask><mask id="m-crb-3"><use href="#mc" /><circle class="m0" cx="0" cy="0" r="1" /></mask><symbol id="s-clt"><circle mask="url(#m-clt-1)" cx="4" cy="4" r="4" class="c1" /><circle mask="url(#m-clt-2)" cx="4" cy="4" r="4" class="m1" /><circle mask="url(#m-clt-3)" cx="4" cy="4" r="3" class="c2" /><circle mask="url(#m-clt-4)" cx="4" cy="4" r="3" class="c4" /><circle mask="url(#m-clt-5)" cx="4" cy="4" r="2" class="m1" /><circle mask="url(#m-clt-6)" cx="4" cy="4" r="2" class="c3" /></symbol><symbol id="s-clb"><circle mask="url(#m-clb-1)" cx="4" cy="0" r="4" class="c1" /><circle mask="url(#m-clb-2)" cx="4" cy="0" r="4" class="m1" /><circle mask="url(#m-clb-3)" cx="4" cy="0" r="3" class="c2" /><circle mask="url(#m-clb-4)" cx="4" cy="0" r="3" class="c4" /><circle mask="url(#m-clb-5)" cx="4" cy="0" r="2" class="m1" /><circle mask="url(#m-clb-6)" cx="4" cy="0" r="2" class="c3" /></symbol><symbol id="s-crt"><circle mask="url(#m-crt-1)" cx="0" cy="4" r="4" class="c1" /><circle mask="url(#m-crt-2)" cx="0" cy="4" r="3" class="c2" /><circle mask="url(#m-crt-3)" cx="0" cy="4" r="2" class="m1" /></symbol><symbol id="s-crb"><circle mask="url(#m-crb-1)" cx="0" cy="0" r="4" class="m1" /><circle mask="url(#m-crb-2)" cx="0" cy="0" r="3" class="c4" /><circle mask="url(#m-crb-3)" cx="0" cy="0" r="2" class="c3" /></symbol><pattern id="c-mtl" viewBox="0,0,80,100" width="100%" height="100%" preserveAspectRatio="none"><use href="#c-mtlr-1" class="m1" /><use href="#c-mtlr-2" class="c3" /><use href="#c-mtlr-3" class="c4" /></pattern><pattern id="c-mbl" viewBox="0,0,80,100" width="100%" height="100%" preserveAspectRatio="none"><use href="#c-mblr-1" class="c1" /><use href="#c-mblr-2" class="m1" /><use href="#c-mblr-3" class="c2" /></pattern><pattern id="c-mtr" viewBox="0,0,80,100" width="100%" height="100%" preserveAspectRatio="none"><use href="#c-mtlr-1" class="m1" /><use href="#c-mtlr-2" class="c1" /><use href="#c-mtlr-3" class="c2" /></pattern><pattern id="c-mbr" viewBox="0,0,80,100" width="100%" height="100%" preserveAspectRatio="none"><use href="#c-mblr-1" class="c3" /><use href="#c-mblr-2" class="m1" /><use href="#c-mblr-3" class="c4" /></pattern></defs><rect class="bg" fill="url(#gr)" width="100%" height="100%" transform="translate(2 2)" /><rect class="st" fill="url(#c-cm-l)" x="0" height="100%" /><rect class="st" fill="url(#c-cm-r)" x="100%" height="100%" transform="translate(-8,0)" /><rect class="cw c1" width="100%" height="1" /><rect class="cw c2" width="100%" height="1" y="1" /><rect class="cw m1" width="100%" height="1" y="2" /><rect class="cw c3" width="100%" height="1" y="100%" transform="translate(0,-3)" /><rect class="cw c4" width="100%" height="1" y="100%" transform="translate(0,-2)" /><rect class="cw m1" width="100%" height="1" y="100%" transform="translate(0,-1)" /><rect class="sl" fill="url(#c-mtl)" x="0" height="100%" /><rect class="sl" fill="url(#c-mbl)" x="0" height="100%" /><rect class="sl" fill="url(#c-mtr)" x="100%" height="100%" transform="translate(-8,0)" /><rect class="sl" fill="url(#c-mbr)" x="100%" height="100%" transform="translate(-8,0)" /><use href="#s-clt" x="0" y="0" transform="translate(0 0)" /><use href="#s-clb" x="0" y="100%" transform="translate(0 -4)" /><use href="#s-crt" x="100%" y="0" transform="translate(-9 0)" /><use href="#s-crb" x="100%" y="100%" transform="translate(-9 -4)" /></svg>