<?xml version="1.0" standalone="no" ?>
<!DOCTYPE svg PUBLIC "-//W3C//DTD SVG 1.1//EN" "http://www.w3.org/Graphics/SVG/1.1/DTD/svg11.dtd">
<svg width="100%" height="100%" version="1.1" xmlns="http://www.w3.org/2000/svg"
xmlns:xlink="http://www.w3.org/1999/xlink" shape-rendering="geometricPrecision">
    <defs>
        <style>
			/*<![CDATA[*/
				.m0{fill:#000;}
				.m1{fill:#fff;}
				
				.c1{fill:#e2e3ea;}
				.c2{fill:#a4abc5;}
				.c3{fill:#e0e0e0;}
				.c4{fill:#717896;}
				
				.bg{width:calc(100% - 9px);height:calc(100% - 4px);}
				.st{height:calc(100% - 4px);width:8px;y:2px;}
				.cw{x:3px;width:calc(100% - 11.5px);}
				.mh{y:3px;height:calc(100% - 6px);}
				.sl{height:calc(100% - 8px);width:8px;y:4px;}
			/*]]>*/
		</style>
		
		<!-- gradient pro pozadí -->
		<linearGradient id="gr" x1="0" x2="0" y1="0" y2="1">
            <stop offset="0%" stop-color="#f5f7ff" />
            <stop offset="100%" stop-color="#cad1ec" />
		</linearGradient>
		
		<!-- opakované elementy - bílý podklad pro rohové masky -->
		<rect id="mc" class="m1" width="4" height="4" x="0" y="0" />
		
		<!-- maska výplně - boční trojůhelník vpravo -->
		<pattern id="c-cm-r" viewBox="0,0,80,100" width="100%" height="100%" preserveAspectRatio="none">
			<polygon fill="url(#gr)" points="0,0 10,0 60,50 10,100 0,100"/>
		</pattern>
		
		<!-- maska čáry nahoře a dole -->
        <mask id="m-ctb">
            <rect class="m1" width="100%" height="100%" />
            <rect class="m0" width="3" height="100%" />
            <rect class="m0" width="5" height="100%" x="100%" transform="translate(-5,0)" />
        </mask>
		
		<!-- masky roh - levý horní -->
		<mask id="m-clt-1">
			<use href="#mc" />
			<circle class="m0" cx="4" cy="4" r="2.5" />
		</mask>
		<mask id="m-clt-2">
			<use href="#mc" />
			<circle class="m0" cx="4" cy="4" r="1.5" />
		</mask>
		<mask id="m-clt-3">
			<use href="#mc" />
			<circle class="m0" cx="4" cy="4" r="1" />
		</mask>
		<!-- masky roh - levý dolní -->
		<mask id="m-clb-1">
			<use href="#mc" />
			<circle class="m0" cx="4" cy="0" r="2.5" />
		</mask>
		<mask id="m-clb-2">
			<use href="#mc" />
			<ellipse class="m0" cx="4" cy="0" rx="4" ry="3" />
		</mask>
		<mask id="m-clb-3">
			<use href="#mc" />
			<circle class="m0" cx="4" cy="0" r="1.5" />
		</mask>
		<mask id="m-clb-4">
			<use href="#mc" />
			<ellipse class="m0" cx="4" cy="0" rx="3" ry="2" />
		</mask>
		<mask id="m-clb-5">
			<use href="#mc" />
			<circle class="m0" cx="4" cy="0" r="1" />
		</mask>
		<mask id="m-clb-6">
			<use href="#mc" />
			<ellipse class="m0" cx="4" cy="0" rx="2" ry="1" />
		</mask>
		<!-- masky roh - pravý horní -->
		<mask id="m-crt-1">
			<use href="#mc" />
			<circle class="m0" cx="0" cy="4" r="2.5" />
		</mask>
		<mask id="m-crt-2">
			<use href="#mc" />
			<circle class="m0" cx="0" cy="4" r="1.5" />
		</mask>
		<mask id="m-crt-3">
			<use href="#mc" />
			<circle class="m0" cx="0" cy="4" r="1" />
		</mask>
		<!-- masky roh - pravý dolní -->
		<mask id="m-crb-1">
			<use href="#mc" />
			<circle class="m0" cx="0" cy="0" r="2.5" />
		</mask>
		<mask id="m-crb-2">
			<use href="#mc" />
			<circle class="m0" cx="0" cy="0" r="1.5" />
		</mask>
		<mask id="m-crb-3">
			<use href="#mc" />
			<circle class="m0" cx="0" cy="0" r="1" />
		</mask>
		
		<!-- levý dolní roh - symbol -->
		<symbol id="s-clt">
			<circle mask="url(#m-clt-1)" cx="4" cy="4" r="4" class="c1" />
			<circle mask="url(#m-clt-2)" cx="4" cy="4" r="3" class="c2" />
			<circle mask="url(#m-clt-3)" cx="4" cy="4" r="2" class="m1" />
		</symbol>
	
		<!-- levý dolní roh - symbol -->
		<symbol id="s-clb">
			<circle mask="url(#m-clb-1)" cx="4" cy="0" r="4" class="c1" />
			<circle mask="url(#m-clb-2)" cx="4" cy="0" r="4" class="m1" />
			<circle mask="url(#m-clb-3)" cx="4" cy="0" r="3" class="c2" />
			<circle mask="url(#m-clb-4)" cx="4" cy="0" r="3" class="c4" />
			<circle mask="url(#m-clb-5)" cx="4" cy="0" r="2" class="m1" />
			<circle mask="url(#m-clb-6)" cx="4" cy="0" r="2" class="c3" />
		</symbol>
		
		<!-- pravý horní roh - symbol -->
		<symbol id="s-crt">
			<circle mask="url(#m-crt-1)" cx="0" cy="4" r="4" class="c1" />
			<circle mask="url(#m-crt-2)" cx="0" cy="4" r="3" class="c2" />
			<circle mask="url(#m-crt-3)" cx="0" cy="4" r="2" class="m1" />
		</symbol>
		
		<!-- pravý dolní roh - symbol -->
		<symbol id="s-crb">
			<circle mask="url(#m-crb-1)" cx="0" cy="0" r="4" class="m1" />
			<circle mask="url(#m-crb-2)" cx="0" cy="0" r="3" class="c4" />
			<circle mask="url(#m-crb-3)" cx="0" cy="0" r="2" class="c3" />
		</symbol>
		
		<!-- definice obsahu - čáry vpravo nahoře -->
		<pattern id="c-mtr" viewBox="0,0,80,100" width="100%" height="100%" preserveAspectRatio="none">
			<polygon class="m1" points="0,0 15,0 65,50 50,50"/>
			<polygon class="c1" points="15,0 30,0 80,50 65,50"/>
			<polygon class="c2" points="10,0 20,0 70,50 60,50"/>
		</pattern>
		
		<!-- definice obsahu - čáry vpravo dole -->
		<pattern id="c-mbr" viewBox="0,0,80,100" width="100%" height="100%" preserveAspectRatio="none">
			<polygon class="c3" points="50,50 65,50 15,100 0,100"/>
			<polygon class="m1" points="65,50 80,50 30,100 15,100"/>
			<polygon class="c4" points="60,50 70,50 20,100 10,100"/>
		</pattern>
		
    </defs>
	
	<!-- výplň uprostřed -->
	<rect class="bg" fill="url(#gr)" width="100%" height="100%" transform="translate(2 2)" />
	<rect class="st" fill="url(#c-cm-l)" x="0" height="100%" />
	<rect class="st" fill="url(#c-cm-r)" x="100%" height="100%" transform="translate(-8,0)" />
	
	<!-- čáry nahoře a dole -->
	<rect class="cw c1" width="100%" height="1" />
	<rect class="cw c2" width="100%" height="1" y="1" />
	<rect class="cw m1" width="100%" height="1" y="2" />
	<rect class="cw c3" width="100%" height="1" y="100%"  transform="translate(0,-3)" />
	<rect class="cw c4" width="100%" height="1" y="100%"  transform="translate(0,-2)" />
	<rect class="cw m1" width="100%" height="1" y="100%"  transform="translate(0,-1)" />
   
	<!-- čáry vlevo -->
	<rect class="mh c1" height="100%" width="1" />
	<rect class="mh c2" height="100%" width="1" x="1" />
	<rect class="mh m1" height="100%" width="1" x="2" />
	
	<!-- čáry vpravo nahoře -->
	<rect class="sl" fill="url(#c-mtr)" x="100%" height="100%" transform="translate(-8,0)" />
	<!-- čáry vpravo dole -->
	<rect class="sl" fill="url(#c-mbr)" x="100%" height="100%" transform="translate(-8,0)" />
	
	<!-- roh - levý horní -->
	<use href="#s-clt" x="0" y="0" transform="translate(0 0)" />
	
	<!-- roh - levý dolní -->
	<use href="#s-clb" x="0" y="100%" transform="translate(0 -4)" />
	
	<!-- roh - pravý horní -->
	<use href="#s-crt" x="100%" y="0" transform="translate(-9 0)" />
	
	<!-- roh - pravý dolní -->
	<use href="#s-crb" x="100%" y="100%" transform="translate(-9 -4)" />
	
</svg>